<?xml version="1.0" encoding="utf-8"?>
<!-- Generator: Adobe Illustrator 25.0.0, SVG Export Plug-In . SVG Version: 6.00 Build 0)  -->
<svg version="1.1" id="Layer_1" xmlns="http://www.w3.org/2000/svg" xmlns:xlink="http://www.w3.org/1999/xlink" x="0px" y="0px"
	 viewBox="0 0 257.8 85.9" style="enable-background:new 0 0 257.8 85.9;" xml:space="preserve">
<style type="text/css">
	.st0{fill-rule:evenodd;clip-rule:evenodd;fill:#EDB53B;}
	.st1{fill-rule:evenodd;clip-rule:evenodd;fill:#FFFFFF;}
	.st2{fill-rule:evenodd;clip-rule:evenodd;fill:#5E5C5C;}
	.st3{fill-rule:evenodd;clip-rule:evenodd;fill:#60BA92;}
	.st4{fill:#FFFFFF;}
</style>
<desc>Created with Sketch.</desc>
<g id="Page-1">
	<g id="Cavy-clean" transform="translate(-17.000000, -15.000000)">
		<path id="Oval" class="st0" d="M38.1,83c0,0,14.3-0.4,29.3,0c10.2,0.3,21.8,0.1,26.3,0c0-9.9,0-8.2,0-9.9s0-9.4,0-12.6
			c0-13.4-12.4-24.3-27.8-24.3S38.1,47.1,38.1,60.5V83z"/>
		<path id="Triangle" class="st1" d="M63.1,36.2v46.9H38.3c0,0,11.3-6.9,17.9-19.2S63.1,36.2,63.1,36.2z"/>
		<path id="Triangle_1_" class="st1" d="M68.6,36.2v46.9h24.8c0,0-11.3-6.9-17.9-19.2C69,51.5,68.6,36.2,68.6,36.2z"/>
		<rect id="Rectangle" x="62.9" y="36.2" class="st1" width="5.9" height="46.9"/>
		<circle id="Oval-2" class="st2" cx="48.1" cy="61.1" r="2.5"/>
		<circle id="Oval-2_1_" class="st2" cx="83.8" cy="61.1" r="2.5"/>
		<path id="Oval-2_2_" class="st2" d="M65.9,71.2c1.5,0,2.7-1.2,2.7-2.7c0-0.8,0.5-2.2,0-2.7c-0.5-0.5-2,0-2.7,0
			c-0.8,0-2.2-0.5-2.7,0c-0.5,0.5,0,2,0,2.7C63.1,69.9,64.4,71.2,65.9,71.2z"/>
		<path id="Triangle-2" class="st0" d="M43.2,37.6c3.1,1.6,3.6,1.7,5.5,6.1s0.7,6.3,0.7,6.3s-6.7,0.2-10.3-1.2
			c-3.6-1.3-5.4-2-5.9-5.5c-0.4-3.4,0.5-4.8,3-6.1C38.8,36,40.2,36,43.2,37.6z"/>
		<path id="Triangle-2_1_" class="st0" d="M87.7,37.6c-3.1,1.6-3.6,1.7-5.5,6.1c-1.9,4.4-0.7,6.3-0.7,6.3s6.7,0.2,10.3-1.2
			c3.6-1.3,5.4-2,5.9-5.5c0.4-3.4-0.5-4.8-3-6.1C92.1,36,90.8,36,87.7,37.6z"/>
	</g>
</g>
<g id="Page-1_1_">
	
		<g id="Pixie-Lab_x5F_logo-proposals_x5F_edits-28.07.17-_x28_1_x29_-_x28_dragged_x29_" transform="translate(-577.000000, -318.000000)">
		<g id="Group" transform="translate(577.000000, 318.000000)">
			<polygon id="Fill-11" class="st1" points="237.4,15.4 237.4,17.8 241,17.8 241,36.8 221.9,36.8 221.9,17.8 235,17.8 235,15.4 
				219.5,15.4 219.5,39.2 243.4,39.2 243.4,15.4 			"/>
			<polygon id="Fill-12" class="st3" points="235,20.2 237.4,20.2 237.4,17.8 235,17.8 			"/>
			<path id="Fill-13" class="st1" d="M227.9,31.5v-8.9h3.7c1.1,0,2,0.3,2.6,0.8c0.6,0.5,0.9,1.3,0.9,2.3c0,1-0.3,1.8-0.9,2.3
				c-0.6,0.5-1.5,0.8-2.6,0.8h-1.3v2.7H227.9z M230.2,26.9h1.1c0.5,0,0.8-0.1,1-0.4c0.2-0.2,0.3-0.5,0.3-0.9c0-0.3-0.1-0.6-0.3-0.9
				c-0.2-0.3-0.6-0.4-1-0.4h-1.1V26.9z"/>
		</g>
	</g>
</g>
<g>
	<path class="st4" d="M118.7,58.3c0.4,0,0.7,0.2,1,0.5l2.9,3.2c-1.6,2-3.6,3.5-5.9,4.6s-5.2,1.6-8.5,1.6c-2.9,0-5.6-0.5-7.9-1.5
		c-2.3-1-4.4-2.4-6-4.2c-1.7-1.8-2.9-3.9-3.8-6.4c-0.9-2.5-1.3-5.2-1.3-8.1c0-3,0.5-5.7,1.5-8.2c1-2.5,2.4-4.6,4.2-6.4
		c1.8-1.8,3.9-3.2,6.4-4.2c2.5-1,5.3-1.5,8.3-1.5c2.9,0,5.5,0.5,7.7,1.4c2.2,0.9,4.1,2.2,5.7,3.7l-2.5,3.4c-0.1,0.2-0.3,0.4-0.6,0.6
		s-0.5,0.2-0.9,0.2c-0.4,0-0.9-0.2-1.3-0.5c-0.4-0.3-1-0.7-1.7-1.1c-0.7-0.4-1.5-0.7-2.6-1.1c-1-0.3-2.3-0.5-3.9-0.5
		c-1.9,0-3.6,0.3-5.1,1c-1.6,0.6-2.9,1.6-4,2.8c-1.1,1.2-2,2.7-2.6,4.4c-0.6,1.7-0.9,3.7-0.9,5.8c0,2.2,0.3,4.2,0.9,5.9
		c0.6,1.7,1.5,3.2,2.6,4.4c1.1,1.2,2.3,2.1,3.8,2.7c1.5,0.6,3,0.9,4.7,0.9c1,0,1.9-0.1,2.7-0.2c0.8-0.1,1.6-0.3,2.2-0.5
		c0.7-0.2,1.3-0.5,1.9-0.9c0.6-0.4,1.2-0.8,1.8-1.4c0.2-0.2,0.4-0.3,0.6-0.4C118.3,58.3,118.5,58.3,118.7,58.3z"/>
	<path class="st4" d="M149.9,67.6h-3c-0.6,0-1.1-0.1-1.5-0.3c-0.4-0.2-0.6-0.6-0.8-1.2l-0.6-2c-0.7,0.6-1.4,1.2-2.1,1.7
		c-0.7,0.5-1.4,0.9-2.1,1.2c-0.7,0.3-1.5,0.6-2.3,0.7s-1.7,0.2-2.7,0.2c-1.2,0-2.3-0.2-3.3-0.5c-1-0.3-1.9-0.8-2.6-1.4
		c-0.7-0.6-1.3-1.4-1.7-2.4c-0.4-1-0.6-2.1-0.6-3.3c0-1.1,0.3-2.1,0.8-3.1c0.6-1,1.5-2,2.8-2.8c1.3-0.8,3-1.5,5.2-2.1
		c2.2-0.6,4.8-0.8,8-0.8v-1.7c0-1.9-0.4-3.3-1.2-4.2c-0.8-0.9-2-1.4-3.5-1.4c-1.1,0-2,0.1-2.7,0.4c-0.7,0.3-1.4,0.5-1.9,0.9
		c-0.5,0.3-1,0.6-1.5,0.9c-0.5,0.3-1,0.4-1.5,0.4c-0.5,0-0.8-0.1-1.2-0.4s-0.6-0.5-0.8-0.9l-1.2-2.2c3.2-3,7.1-4.4,11.7-4.4
		c1.6,0,3.1,0.3,4.4,0.8c1.3,0.5,2.4,1.3,3.3,2.2c0.9,1,1.6,2.1,2,3.4c0.5,1.3,0.7,2.8,0.7,4.4V67.6z M136.7,63.4
		c0.7,0,1.3-0.1,1.9-0.2s1.1-0.3,1.7-0.6c0.5-0.3,1-0.6,1.5-0.9c0.5-0.4,1-0.8,1.5-1.3v-4.7c-2,0-3.6,0.1-4.9,0.4s-2.4,0.6-3.2,1
		c-0.8,0.4-1.4,0.8-1.7,1.4c-0.3,0.5-0.5,1.1-0.5,1.7c0,1.2,0.4,2.1,1.1,2.6C134.7,63.1,135.6,63.4,136.7,63.4z"/>
	<path class="st4" d="M169.7,67.6h-6.1l-11.2-28.1h5.6c0.5,0,0.9,0.1,1.2,0.4c0.3,0.2,0.6,0.5,0.7,0.9l5.4,15
		c0.3,0.9,0.6,1.7,0.8,2.6c0.2,0.8,0.4,1.7,0.6,2.5c0.2-0.8,0.4-1.7,0.6-2.5c0.2-0.8,0.5-1.7,0.8-2.6l5.6-15
		c0.1-0.4,0.4-0.7,0.7-0.9c0.3-0.2,0.7-0.4,1.2-0.4h5.3L169.7,67.6z"/>
	<path class="st4" d="M194.8,75.3c-0.2,0.5-0.5,0.8-0.8,1.1c-0.3,0.2-0.8,0.4-1.5,0.4h-5l5.3-11.3l-11.4-26h5.9c0.5,0,1,0.1,1.3,0.4
		c0.3,0.3,0.5,0.5,0.7,0.9l6,14.6c0.2,0.5,0.4,1,0.5,1.5s0.3,1,0.4,1.5c0.1-0.5,0.3-1,0.5-1.5c0.2-0.5,0.4-1,0.6-1.5l5.6-14.6
		c0.1-0.4,0.4-0.7,0.7-0.9c0.3-0.2,0.7-0.4,1.1-0.4h5.4L194.8,75.3z"/>
</g>
</svg>
