<?xml version="1.0" encoding="utf-8"?>
<svg version="1.1" id="Layer_1" xmlns="http://www.w3.org/2000/svg" xmlns:xlink="http://www.w3.org/1999/xlink" x="0px" y="0px"
	 viewBox="0 0 127.6 124.1" style="enable-background:new 0 0 127.6 124.1;" xml:space="preserve" width="140" height="140">
<style type="text/css">
	.st0{fill:none;stroke:#EDB53B;stroke-width:3;stroke-miterlimit:10;}
	.st1{fill:#D1D1D1;}
	.st2{fill:#272F36;}
</style>
<circle class="st0" cx="63.6" cy="60.7" r="47.8"/>
<path class="st1" d="M41.6,35.7c-2.4,0-4.4,2-4.4,4.4v6.7V49v32.1c0,2.4,2,4.4,4.4,4.4h44.3c2.4,0,4.4-2,4.4-4.4V49v-2.2v-6.7
	c0-2.4-2-4.4-4.4-4.4C85.9,35.7,41.6,35.7,41.6,35.7z M41.6,37.9h44.3c1.2,0,2.2,1,2.2,2.2v6.7H39.3v-6.7
	C39.3,38.9,40.3,37.9,41.6,37.9z M39.3,49h48.8v32.1c0,1.2-1,2.2-2.2,2.2H41.6c-1.2,0-2.2-1-2.2-2.2C39.3,81.1,39.3,49,39.3,49z"/>
<path class="st1" d="M44.9,40.1c-1.2,0-2.2,1-2.2,2.2c0,1.2,1,2.2,2.2,2.2c1.2,0,2.2-1,2.2-2.2c0,0,0,0,0,0
	C47.1,41.1,46.1,40.1,44.9,40.1C44.9,40.1,44.9,40.1,44.9,40.1z"/>
<path class="st1" d="M51.5,40.1c-1.2,0-2.2,1-2.2,2.2c0,0,0,0,0,0c0,1.2,1,2.2,2.2,2.2c0,0,0,0,0,0c1.2,0,2.2-1,2.2-2.2c0,0,0,0,0,0
	C53.8,41.1,52.8,40.1,51.5,40.1C51.5,40.1,51.5,40.1,51.5,40.1z"/>
<path class="st1" d="M58.2,40.1c-1.2,0-2.2,1-2.2,2.2c0,0,0,0,0,0c0,1.2,1,2.2,2.2,2.2c0,0,0,0,0,0c1.2,0,2.2-1,2.2-2.2c0,0,0,0,0,0
	C60.4,41.1,59.4,40.1,58.2,40.1C58.2,40.1,58.2,40.1,58.2,40.1z"/>
<g>
	<path class="st2" d="M59.7,56.2c4.5,0,6.7,2.5,6.7,2.5l-1.6,2.5c0,0-2.1-1.9-5-1.9c-3.9,0-6.1,2.9-6.1,6.3c0,3.5,2.3,6.5,6.1,6.5
		c3.2,0,5.3-2.3,5.3-2.3l1.7,2.4c0,0-2.5,3-7.2,3c-5.6,0-9.4-4.1-9.4-9.5C50.3,60.2,54.3,56.2,59.7,56.2z"/>
	<path class="st2" d="M69.9,56.5h3.3v18.3h-3.3V56.5z"/>
</g>
</svg>
