<?xml version="1.0" encoding="utf-8"?>
<!-- Generator: Adobe Illustrator 25.0.0, SVG Export Plug-In . SVG Version: 6.00 Build 0)  -->
<svg version="1.1" id="Layer_1" xmlns="http://www.w3.org/2000/svg" xmlns:xlink="http://www.w3.org/1999/xlink" x="0px" y="0px"
	 viewBox="0 0 127.6 124.1" style="enable-background:new 0 0 127.6 124.1;" xml:space="preserve" width="140" height="140">
<style type="text/css">
	.st0{fill:none;stroke:#EDB53B;stroke-width:3;stroke-miterlimit:10;}
	.st1{fill:#D1D1D1;}
	.st2{fill:none;}
	.st3{fill-rule:evenodd;clip-rule:evenodd;fill:#272F36;}
</style>
<circle class="st0" cx="63.6" cy="60.7" r="47.8"/>
<g>
	<path class="st1" d="M42.5,43h3.7c0.6,0,1-0.4,1-1s-0.4-1-1-1h-3.7c-0.6,0-1,0.4-1,1C41.6,42.5,41.9,43,42.5,43z"/>
	<path class="st1" d="M49.9,43h1.4c0.6,0,1-0.4,1-1s-0.4-1-1-1h-1.4c-0.6,0-1,0.4-1,1C49,42.5,49.5,43,49.9,43z"/>
	<path class="st1" d="M78.6,43h3.7c0.6,0,1-0.4,1-1s-0.4-1-1-1h-3.7c-0.6,0-1,0.4-1,1C77.7,42.5,78,43,78.6,43z"/>
	<path class="st1" d="M84.9,43H85c0.6,0,1-0.4,1-1s-0.4-1-1-1h-0.1c-0.6,0-1,0.4-1,1C83.9,42.5,84.4,43,84.9,43z"/>
	<path class="st1" d="M48.6,78.3h-3.3c-0.6,0-1,0.4-1,1s0.4,1,1,1h3.3c0.6,0,1-0.4,1-1S49.2,78.3,48.6,78.3z"/>
	<path class="st1" d="M82,79.9c0.7-0.2,1.2-0.7,1.4-1.4c0.3-1.1-0.3-2.2-1.4-2.5c-0.3-0.1-0.7-0.1-1,0c-0.7,0.2-1.2,0.7-1.4,1.4
		c-0.3,1.1,0.3,2.2,1.4,2.5C81.3,80,81.7,80,82,79.9z"/>
	<path class="st2" d="M59.2,42.1c0-1.7-1.3-2.9-2.9-2.9H37.6c-1.7,0-2.9,1.3-2.9,2.9v2.2h24.6V42.1z"/>
	<path class="st2" d="M34.6,79.2c0,1.7,1.3,2.9,2.9,2.9h18.7c1.7,0,2.9-1.3,2.9-2.9v-2.8H34.6V79.2z"/>
	<path class="st1" d="M59.2,74.4H34.6V46.3h24.6v8.4h2V42.1c0-2.7-2.1-4.9-4.9-4.9H37.6c-2.7,0-4.9,2.1-4.9,4.9v37.1
		c0,2.7,2.1,4.9,4.9,4.9h18.7c2.7,0,4.9-2.1,4.9-4.9v-14h-2V74.4z M34.6,42.1c0-1.7,1.3-2.9,2.9-2.9h18.7c1.7,0,2.9,1.3,2.9,2.9v2.2
		H34.6V42.1z M59.2,79.2c0,1.7-1.3,2.9-2.9,2.9H37.6c-1.7,0-2.9-1.3-2.9-2.9v-2.8h24.6V79.2z"/>
	<path class="st1" d="M90.3,37.2H72.7c-2.8,0-5,2.3-5,5v12.4h2v-8.1v-2v-2.4c0-1.7,1.4-3,3-3h17.6c1.7,0,3,1.4,3,3v2.4v2v25.1v2V79
		c0,1.7-1.4,3-3,3H72.7c-1.7,0-3-1.4-3-3v-5.2v-2v-6.5h-2V79c0,2.8,2.3,5,5,5h17.6c2.8,0,5-2.3,5-5V42.3
		C95.3,39.5,93,37.2,90.3,37.2z"/>
	<g>
		<path class="st3" d="M79.5,53.9c-1.9-1.9-5,1.1-3,3l0.8,0.7H52.2l0.7-0.7c2.1-1.9-1-5-3-3l-4.4,4.5c-0.8,0.7-0.8,2.2,0,2.9
			l4.4,4.5c2.1,1.9,5.1-1.1,3-3L52.2,62h25.1l-0.8,0.7c-1.9,1.9,1.1,5,3,3l4.5-4.5c0.7-0.7,0.7-2.2,0-2.9L79.5,53.9z"/>
	</g>
</g>
</svg>
