<?xml version="1.0" encoding="utf-8"?>
<!-- Generator: Adobe Illustrator 25.0.0, SVG Export Plug-In . SVG Version: 6.00 Build 0)  -->
<svg version="1.1" id="Layer_1" xmlns="http://www.w3.org/2000/svg" xmlns:xlink="http://www.w3.org/1999/xlink" x="0px" y="0px"
	 viewBox="0 0 127.6 124.1" style="enable-background:new 0 0 127.6 124.1;" xml:space="preserve" width="140" height="140">
<style type="text/css">
	.st0{fill:#D1D1D1;}
	.st1{fill:#272F36;}
	.st2{fill:none;stroke:#EDB53B;stroke-width:3;stroke-miterlimit:10;}
</style>
<path class="st0" d="M46.4,72.1H32.8c-0.7,0-1.3,0.6-1.3,1.3s0.6,1.3,1.3,1.3h13.6c0.7,0,1.3-0.6,1.3-1.3S47.1,72.1,46.4,72.1z"/>
<path class="st0" d="M44.9,61.1c0-0.7-0.6-1.3-1.3-1.3H30c-0.7,0-1.3,0.6-1.3,1.3c0,0.7,0.6,1.3,1.3,1.3h13.6
	C44.3,62.4,44.9,61.8,44.9,61.1z"/>
<path class="st0" d="M46.4,47.6H32.8c-0.7,0-1.3,0.6-1.3,1.3c0,0.7,0.6,1.3,1.3,1.3h13.6c0.7,0,1.3-0.6,1.3-1.3
	C47.8,48.2,47.1,47.6,46.4,47.6z"/>
<path class="st0" d="M73.4,38c-12.8,0-23.1,10.4-23.1,23.1s10.4,23.1,23.1,23.1s23.1-10.4,23.1-23.1S86.2,38,73.4,38z M93.9,59.8
	h-4.6c-0.7,0-1.3,0.6-1.3,1.3c0,0.7,0.6,1.3,1.3,1.3h4.6c-0.3,4.7-2.1,9-5.1,12.3l-3.3-3.3c-0.5-0.5-1.4-0.5-1.9,0
	c-0.5,0.5-0.5,1.4,0,1.9l3.3,3.3c-3.4,2.9-7.6,4.8-12.3,5.1V77c0-0.7-0.6-1.3-1.3-1.3c-0.7,0-1.3,0.6-1.3,1.3v4.6
	c-4.7-0.3-8.9-2.2-12.2-5.1l3.3-3.3c0.5-0.5,0.5-1.4,0-1.9c-0.5-0.5-1.4-0.5-1.9,0L58,74.6c-2.9-3.4-4.7-7.6-5-12.3h4.6
	c0.7,0,1.3-0.6,1.3-1.3c0-0.7-0.6-1.4-1.4-1.4h-4.6c0.3-4.6,2.2-8.9,5.1-12.2l3.2,3.2c0.3,0.3,0.6,0.4,0.9,0.4s0.6-0.1,0.9-0.4
	c0.5-0.5,0.5-1.4,0-1.9l-3.2-3.2c3.3-2.9,7.6-4.8,12.2-5.1v4.6c0,0.7,0.6,1.3,1.3,1.3c0.7,0,1.3-0.6,1.3-1.3v-4.6
	C85,41.3,93.2,49.6,93.9,59.8z"/>
<path class="st1" d="M74.8,57.8c-1.4-0.6-3-0.4-4.1,0.7c-1.4,1.4-1.4,3.7,0,5.1c1.4,1.4,3.7,1.4,5.1,0c1.1-1.1,1.4-2.6,0.8-4l8-8
	c0.5-0.5,0.5-1.4,0-1.9c-0.5-0.5-1.4-0.5-1.9,0L74.8,57.8z"/>
<circle class="st2" cx="63.6" cy="60.7" r="47.8"/>
</svg>
