<svg version="1.1" id="Layer_1" xmlns="http://www.w3.org/2000/svg" x="0" y="0" viewBox="0 0 257.8 85.9" xml:space="preserve"><style>.st0{fill:#edb53b}.st0,.st1,.st2{fill-rule:evenodd;clip-rule:evenodd}.st1{fill:#fff}.st2{fill:#5e5c5c}</style><g id="Page-1"><g id="Cavy-clean" transform="translate(-17 -15)"><path id="Oval" class="st0" d="M38.1 83s14.3-.4 29.3 0c10.2.3 21.8.1 26.3 0V60.5c0-13.4-12.4-24.3-27.8-24.3S38.1 47.1 38.1 60.5V83z"/><path id="Triangle" class="st1" d="M63.1 36.2v46.9H38.3s11.3-6.9 17.9-19.2 6.9-27.7 6.9-27.7z"/><path id="Triangle_1_" class="st1" d="M68.6 36.2v46.9h24.8s-11.3-6.9-17.9-19.2c-6.5-12.4-6.9-27.7-6.9-27.7z"/><path id="Rectangle" class="st1" d="M62.9 36.2h5.9v46.9h-5.9z"/><circle id="Oval-2" class="st2" cx="48.1" cy="61.1" r="2.5"/><circle id="Oval-2_1_" class="st2" cx="83.8" cy="61.1" r="2.5"/><path id="Oval-2_2_" class="st2" d="M65.9 71.2c1.5 0 2.7-1.2 2.7-2.7 0-.8.5-2.2 0-2.7s-2 0-2.7 0c-.8 0-2.2-.5-2.7 0s0 2 0 2.7c-.1 1.4 1.2 2.7 2.7 2.7z"/><path id="Triangle-2" class="st0" d="M43.2 37.6c3.1 1.6 3.6 1.7 5.5 6.1s.7 6.3.7 6.3-6.7.2-10.3-1.2c-3.6-1.3-5.4-2-5.9-5.5-.4-3.4.5-4.8 3-6.1 2.6-1.2 4-1.2 7 .4z"/><path id="Triangle-2_1_" class="st0" d="M87.7 37.6c-3.1 1.6-3.6 1.7-5.5 6.1-1.9 4.4-.7 6.3-.7 6.3s6.7.2 10.3-1.2c3.6-1.3 5.4-2 5.9-5.5.4-3.4-.5-4.8-3-6.1-2.6-1.2-3.9-1.2-7 .4z"/></g></g><g id="Page-1_1_"><g id="Pixie-Lab_x5F_logo-proposals_x5F_edits-28.07.17-_x28_1_x29_-_x28_dragged_x29_" transform="translate(-577 -318)"><g id="Group" transform="translate(577 318)"><path id="Fill-11" class="st1" d="M237.4 15.4v2.4h3.6v19h-19.1v-19H235v-2.4h-15.5v23.8h23.9V15.4z"/><path id="Fill-12" fill-rule="evenodd" clip-rule="evenodd" fill="#60ba92" d="M235 20.2h2.4v-2.4H235z"/><path id="Fill-13" class="st1" d="M227.9 31.5v-8.9h3.7c1.1 0 2 .3 2.6.8.6.5.9 1.3.9 2.3 0 1-.3 1.8-.9 2.3-.6.5-1.5.8-2.6.8h-1.3v2.7h-2.4zm2.3-4.6h1.1c.5 0 .8-.1 1-.4.2-.2.3-.5.3-.9 0-.3-.1-.6-.3-.9-.2-.3-.6-.4-1-.4h-1.1v2.6z"/></g></g></g><path d="M118.7 58.3c.4 0 .7.2 1 .5l2.9 3.2c-1.6 2-3.6 3.5-5.9 4.6s-5.2 1.6-8.5 1.6c-2.9 0-5.6-.5-7.9-1.5-2.3-1-4.4-2.4-6-4.2-1.7-1.8-2.9-3.9-3.8-6.4-.9-2.5-1.3-5.2-1.3-8.1 0-3 .5-5.7 1.5-8.2 1-2.5 2.4-4.6 4.2-6.4 1.8-1.8 3.9-3.2 6.4-4.2 2.5-1 5.3-1.5 8.3-1.5 2.9 0 5.5.5 7.7 1.4 2.2.9 4.1 2.2 5.7 3.7l-2.5 3.4c-.1.2-.3.4-.6.6s-.5.2-.9.2-.9-.2-1.3-.5-1-.7-1.7-1.1c-.7-.4-1.5-.7-2.6-1.1-1-.3-2.3-.5-3.9-.5-1.9 0-3.6.3-5.1 1-1.6.6-2.9 1.6-4 2.8-1.1 1.2-2 2.7-2.6 4.4-.6 1.7-.9 3.7-.9 5.8 0 2.2.3 4.2.9 5.9.6 1.7 1.5 3.2 2.6 4.4 1.1 1.2 2.3 2.1 3.8 2.7 1.5.6 3 .9 4.7.9 1 0 1.9-.1 2.7-.2.8-.1 1.6-.3 2.2-.5.7-.2 1.3-.5 1.9-.9.6-.4 1.2-.8 1.8-1.4.2-.2.4-.3.6-.4h.6zm31.2 9.3h-3c-.6 0-1.1-.1-1.5-.3-.4-.2-.6-.6-.8-1.2l-.6-2c-.7.6-1.4 1.2-2.1 1.7-.7.5-1.4.9-2.1 1.2-.7.3-1.5.6-2.3.7s-1.7.2-2.7.2c-1.2 0-2.3-.2-3.3-.5s-1.9-.8-2.6-1.4c-.7-.6-1.3-1.4-1.7-2.4-.4-1-.6-2.1-.6-3.3 0-1.1.3-2.1.8-3.1.6-1 1.5-2 2.8-2.8 1.3-.8 3-1.5 5.2-2.1 2.2-.6 4.8-.8 8-.8v-1.7c0-1.9-.4-3.3-1.2-4.2-.8-.9-2-1.4-3.5-1.4-1.1 0-2 .1-2.7.4-.7.3-1.4.5-1.9.9l-1.5.9c-.5.3-1 .4-1.5.4s-.8-.1-1.2-.4-.6-.5-.8-.9l-1.2-2.2c3.2-3 7.1-4.4 11.7-4.4 1.6 0 3.1.3 4.4.8 1.3.5 2.4 1.3 3.3 2.2.9 1 1.6 2.1 2 3.4.5 1.3.7 2.8.7 4.4v17.9zm-13.2-4.2c.7 0 1.3-.1 1.9-.2s1.1-.3 1.7-.6l1.5-.9c.5-.4 1-.8 1.5-1.3v-4.7c-2 0-3.6.1-4.9.4s-2.4.6-3.2 1c-.8.4-1.4.8-1.7 1.4-.3.5-.5 1.1-.5 1.7 0 1.2.4 2.1 1.1 2.6.6.3 1.5.6 2.6.6zm33 4.2h-6.1l-11.2-28.1h5.6c.5 0 .9.1 1.2.4.3.2.6.5.7.9l5.4 15c.3.9.6 1.7.8 2.6.2.8.4 1.7.6 2.5.2-.8.4-1.7.6-2.5.2-.8.5-1.7.8-2.6l5.6-15c.1-.4.4-.7.7-.9.3-.2.7-.4 1.2-.4h5.3l-11.2 28.1zm25.1 7.7c-.2.5-.5.8-.8 1.1-.3.2-.8.4-1.5.4h-5l5.3-11.3-11.4-26h5.9c.5 0 1 .1 1.3.4.3.3.5.5.7.9l6 14.6c.2.5.4 1 .5 1.5s.3 1 .4 1.5c.1-.5.3-1 .5-1.5l.6-1.5 5.6-14.6c.1-.4.4-.7.7-.9.3-.2.7-.4 1.1-.4h5.4l-15.3 35.8z" fill="#fff"/></svg>