<svg version="1.1" id="Layer_1" xmlns="http://www.w3.org/2000/svg" x="0" y="0" viewBox="0 0 127.6 124.1" xml:space="preserve" width="140" height="140"><style>.st1{fill:#d1d1d1}</style><circle cx="63.6" cy="60.7" r="47.8" fill="none" stroke="#edb53b" stroke-width="3" stroke-miterlimit="10"/><path class="st1" d="M41.6 35.7c-2.4 0-4.4 2-4.4 4.4v41c0 2.4 2 4.4 4.4 4.4h44.3c2.4 0 4.4-2 4.4-4.4v-41c0-2.4-2-4.4-4.4-4.4H41.6zm0 2.2h44.3c1.2 0 2.2 1 2.2 2.2v6.7H39.3v-6.7c0-1.2 1-2.2 2.3-2.2zM39.3 49h48.8v32.1c0 1.2-1 2.2-2.2 2.2H41.6c-1.2 0-2.2-1-2.2-2.2-.1 0-.1-32.1-.1-32.1z"/><path class="st1" d="M44.9 40.1c-1.2 0-2.2 1-2.2 2.2 0 1.2 1 2.2 2.2 2.2 1.2 0 2.2-1 2.2-2.2 0-1.2-1-2.2-2.2-2.2zm6.6 0c-1.2 0-2.2 1-2.2 2.2 0 1.2 1 2.2 2.2 2.2 1.2 0 2.2-1 2.2-2.2.1-1.2-.9-2.2-2.2-2.2zm6.7 0c-1.2 0-2.2 1-2.2 2.2 0 1.2 1 2.2 2.2 2.2 1.2 0 2.2-1 2.2-2.2 0-1.2-1-2.2-2.2-2.2z"/><path d="M59.7 56.2c4.5 0 6.7 2.5 6.7 2.5l-1.6 2.5s-2.1-1.9-5-1.9c-3.9 0-6.1 2.9-6.1 6.3 0 3.5 2.3 6.5 6.1 6.5 3.2 0 5.3-2.3 5.3-2.3l1.7 2.4s-2.5 3-7.2 3c-5.6 0-9.4-4.1-9.4-9.5.1-5.5 4.1-9.5 9.5-9.5zm10.2.3h3.3v18.3h-3.3V56.5z" fill="#272f36"/></svg>