<svg version="1.1" id="Layer_1" xmlns="http://www.w3.org/2000/svg" x="0" y="0" viewBox="0 0 127.6 124.1" xml:space="preserve" width="140" height="140"><style>.st1{fill:#d1d1d1}</style><circle cx="63.6" cy="60.7" r="47.8" fill="none" stroke="#edb53b" stroke-width="3" stroke-miterlimit="10"/><path class="st1" d="M42.5 43h3.7c.6 0 1-.4 1-1s-.4-1-1-1h-3.7c-.6 0-1 .4-1 1 .1.5.4 1 1 1zm7.4 0h1.4c.6 0 1-.4 1-1s-.4-1-1-1h-1.4c-.6 0-1 .4-1 1 .1.5.6 1 1 1zm28.7 0h3.7c.6 0 1-.4 1-1s-.4-1-1-1h-3.7c-.6 0-1 .4-1 1 .1.5.4 1 1 1zm6.3 0h.1c.6 0 1-.4 1-1s-.4-1-1-1h-.1c-.6 0-1 .4-1 1 0 .5.5 1 1 1zM48.6 78.3h-3.3c-.6 0-1 .4-1 1s.4 1 1 1h3.3c.6 0 1-.4 1-1s-.4-1-1-1zM82 79.9c.7-.2 1.2-.7 1.4-1.4.3-1.1-.3-2.2-1.4-2.5-.3-.1-.7-.1-1 0-.7.2-1.2.7-1.4 1.4-.3 1.1.3 2.2 1.4 2.5.3.1.7.1 1 0z"/><path d="M59.2 42.1c0-1.7-1.3-2.9-2.9-2.9H37.6c-1.7 0-2.9 1.3-2.9 2.9v2.2h24.6v-2.2zM34.6 79.2c0 1.7 1.3 2.9 2.9 2.9h18.7c1.7 0 2.9-1.3 2.9-2.9v-2.8H34.6v2.8z" fill="none"/><path class="st1" d="M59.2 74.4H34.6V46.3h24.6v8.4h2V42.1c0-2.7-2.1-4.9-4.9-4.9H37.6c-2.7 0-4.9 2.1-4.9 4.9v37.1c0 2.7 2.1 4.9 4.9 4.9h18.7c2.7 0 4.9-2.1 4.9-4.9v-14h-2v9.2zM34.6 42.1c0-1.7 1.3-2.9 2.9-2.9h18.7c1.7 0 2.9 1.3 2.9 2.9v2.2H34.6v-2.2zm24.6 37.1c0 1.7-1.3 2.9-2.9 2.9H37.6c-1.7 0-2.9-1.3-2.9-2.9v-2.8h24.6v2.8zm31.1-42H72.7c-2.8 0-5 2.3-5 5v12.4h2V42.1c0-1.7 1.4-3 3-3h17.6c1.7 0 3 1.4 3 3V79c0 1.7-1.4 3-3 3H72.7c-1.7 0-3-1.4-3-3V65.3h-2V79c0 2.8 2.3 5 5 5h17.6c2.8 0 5-2.3 5-5V42.3c0-2.8-2.3-5.1-5-5.1z"/><path d="M79.5 53.9c-1.9-1.9-5 1.1-3 3l.8.7H52.2l.7-.7c2.1-1.9-1-5-3-3l-4.4 4.5c-.8.7-.8 2.2 0 2.9l4.4 4.5c2.1 1.9 5.1-1.1 3-3l-.7-.8h25.1l-.8.7c-1.9 1.9 1.1 5 3 3l4.5-4.5c.7-.7.7-2.2 0-2.9l-4.5-4.4z" fill-rule="evenodd" clip-rule="evenodd" fill="#272f36"/></svg>