<svg width="93" height="93" viewBox="0 0 93 93" xmlns="http://www.w3.org/2000/svg" xmlns:xlink="http://www.w3.org/1999/xlink"><defs><path id="a" d="M0 92h91V0H0z"/><path id="c" d="M0 90h91V0H0z"/><path id="e" d="M0 91h91V0H0z"/><path id="g" d="M0 91h91V0H0z"/><path id="i" d="M0 91h91V0H0z"/><path id="k" d="M0 90h89V0H0z"/><path id="m" d="M0 90h91V0H0z"/><path id="o" d="M0 91h92V0H0z"/><path id="q" d="M0 89h88V0H0z"/><path id="s" d="M0 90h90V0H0z"/><path id="u" d="M0 93h93V0H0z"/><path id="w" d="M0 91h92V0H0z"/></defs><g fill="none" fill-rule="evenodd"><path d="M24.128 28.589h-2.95v4.426h2.95c1.43 0 2.337-.886 2.337-2.202 0-1.316-.907-2.224-2.337-2.224zm.16 7.262h-3.11v6.082h-3.155V25.775h6.264c3.336 0 5.333 2.292 5.333 5.038 0 2.746-1.997 5.038-5.333 5.038z" fill="#FFF" fill-rule="nonzero"/><mask id="b" fill="#fff"><use xlink:href="#a"/></mask><path fill="#FFF" fill-rule="nonzero" mask="url(#b)" d="M33.403 41.933h3.155V25.774h-3.155z"/><mask id="d" fill="#fff"><use xlink:href="#c"/></mask><path fill="#FFF" fill-rule="nonzero" mask="url(#d)" d="M49.535 41.933l-3.131-5.628-3.11 5.628h-3.607l5.015-8.283-4.698-7.876h3.586l2.813 5.22 2.837-5.22h3.564l-4.699 7.876 5.039 8.283z"/><mask id="f" fill="#fff"><use xlink:href="#e"/></mask><path fill="#FFF" fill-rule="nonzero" mask="url(#f)" d="M56.27 41.933h3.154V25.774H56.27z"/><mask id="h" fill="#fff"><use xlink:href="#g"/></mask><path fill="#FFF" fill-rule="nonzero" mask="url(#h)" d="M64.323 41.933v-16.16h10.644v2.816h-7.49v3.789h6.378v2.815h-6.378v3.926h7.49v2.814z"/><mask id="j" fill="#fff"><use xlink:href="#i"/></mask><path fill="#FFF" fill-rule="nonzero" mask="url(#j)" d="M18.1 67.097V50.939h1.226v15.068h8.578v1.09z"/><mask id="l" fill="#fff"><use xlink:href="#k"/></mask><path d="M38.686 52.572l-3.38 9.51h6.762l-3.382-9.51zm5.174 14.525l-1.406-3.925H34.92l-1.407 3.925h-1.316l5.946-16.158h1.09l5.945 16.158H43.86z" fill="#FFF" fill-rule="nonzero" mask="url(#l)"/><mask id="n" fill="#fff"><use xlink:href="#m"/></mask><path d="M55.134 59.38h-4.767v6.627h4.767c2.201 0 3.653-1.248 3.653-3.314 0-2.064-1.452-3.313-3.653-3.313m-.182-7.353h-4.585v6.264h4.585c1.952 0 3.585-.907 3.585-3.132 0-2.223-1.633-3.132-3.585-3.132m.318 15.07h-6.127V50.94h5.945c2.678 0 4.675 1.543 4.675 4.22 0 1.68-.953 3.11-2.519 3.631 1.747.59 2.77 2.043 2.77 3.903 0 2.883-1.885 4.404-4.744 4.404" fill="#FFF" fill-rule="nonzero" mask="url(#n)"/><mask id="p" fill="#fff"><use xlink:href="#o"/></mask><path d="M69.537 67.233c-2.405 0-3.903-.658-5.379-2.134l.864-.861c1.453 1.452 2.632 1.906 4.584 1.906 2.54 0 4.154-1.225 4.154-3.336 0-.954-.296-1.747-.886-2.27-.59-.5-1.022-.658-2.337-.863l-1.885-.295c-1.225-.18-2.2-.59-2.882-1.178-.862-.727-1.27-1.726-1.27-2.974 0-2.701 1.928-4.426 5.016-4.426 1.996 0 3.266.545 4.651 1.748l-.793.794c-1-.885-1.998-1.498-3.927-1.498-2.338 0-3.745 1.294-3.745 3.337 0 .93.273 1.633.84 2.11.567.477 1.498.863 2.406.999l1.747.272c1.52.227 2.2.499 2.883 1.067.885.726 1.406 1.837 1.406 3.13 0 2.724-2.088 4.472-5.447 4.472" fill="#FFF" fill-rule="nonzero" mask="url(#p)"/><mask id="r" fill="#fff"><use xlink:href="#q"/></mask><path fill="#FFF" fill-rule="nonzero" mask="url(#r)" d="M33.403 19.002h3.155v-3.155h-3.155z"/><mask id="t" fill="#fff"><use xlink:href="#s"/></mask><path fill="#FFF" fill-rule="nonzero" mask="url(#t)" d="M56.27 6.614h3.155V3.46H56.27z"/><mask id="v" fill="#fff"><use xlink:href="#u"/></mask><path fill="#FFF" fill-rule="nonzero" mask="url(#v)" d="M59.418 0v3.45H89.55v86.1H3.45V3.45H33.4V0H0v93h93V0z"/><mask id="x" fill="#fff"><use xlink:href="#w"/></mask><path fill="#FFF" fill-rule="nonzero" mask="url(#x)" d="M36.558 3.45h19.709V0H36.558z"/></g></svg>