<svg xmlns="http://www.w3.org/2000/svg" viewBox="0 0 127.6 124.1" width="140" height="140"><path d="M46.4 72.1H32.8c-.7 0-1.3.6-1.3 1.3s.6 1.3 1.3 1.3h13.6c.7 0 1.3-.6 1.3-1.3s-.6-1.3-1.3-1.3zm-1.5-11c0-.7-.6-1.3-1.3-1.3H30c-.7 0-1.3.6-1.3 1.3 0 .7.6 1.3 1.3 1.3h13.6c.7 0 1.3-.6 1.3-1.3zm1.5-13.5H32.8c-.7 0-1.3.6-1.3 1.3 0 .7.6 1.3 1.3 1.3h13.6c.7 0 1.3-.6 1.3-1.3.1-.7-.6-1.3-1.3-1.3zm27-9.6c-12.8 0-23.1 10.4-23.1 23.1s10.4 23.1 23.1 23.1 23.1-10.4 23.1-23.1S86.2 38 73.4 38zm20.5 21.8h-4.6c-.7 0-1.3.6-1.3 1.3 0 .7.6 1.3 1.3 1.3h4.6c-.3 4.7-2.1 9-5.1 12.3l-3.3-3.3c-.5-.5-1.4-.5-1.9 0s-.5 1.4 0 1.9l3.3 3.3c-3.4 2.9-7.6 4.8-12.3 5.1V77c0-.7-.6-1.3-1.3-1.3-.7 0-1.3.6-1.3 1.3v4.6c-4.7-.3-8.9-2.2-12.2-5.1l3.3-3.3c.5-.5.5-1.4 0-1.9s-1.4-.5-1.9 0L58 74.6c-2.9-3.4-4.7-7.6-5-12.3h4.6c.7 0 1.3-.6 1.3-1.3 0-.7-.6-1.4-1.4-1.4h-4.6c.3-4.6 2.2-8.9 5.1-12.2l3.2 3.2c.3.3.6.4.9.4s.6-.1.9-.4c.5-.5.5-1.4 0-1.9l-3.2-3.2c3.3-2.9 7.6-4.8 12.2-5.1V45c0 .7.6 1.3 1.3 1.3.7 0 1.3-.6 1.3-1.3v-4.6c10.4.9 18.6 9.2 19.3 19.4z" fill="#d1d1d1"/><path d="M74.8 57.8c-1.4-.6-3-.4-4.1.7-1.4 1.4-1.4 3.7 0 5.1 1.4 1.4 3.7 1.4 5.1 0 1.1-1.1 1.4-2.6.8-4l8-8c.5-.5.5-1.4 0-1.9s-1.4-.5-1.9 0l-7.9 8.1z" fill="#272f36"/><circle cx="63.6" cy="60.7" r="47.8" fill="none" stroke="#edb53b" stroke-width="3" stroke-miterlimit="10"/></svg>